<svg width="314" height="415" viewBox="0 0 314 415" fill="none" xmlns="http://www.w3.org/2000/svg">
<path d="M39.0001 387.5H28.5001V394.5H7.50008C-1.49993 394.5 -2 414.5 7.50008 414.5H305.5C316.5 414.5 317 394.5 305.5 394.5H285.5V387.5H275.5L252.261 299.5L53.9203 331L39.0001 387.5Z" fill="black"/>
<path d="M177 14.5C171.5 -3.99998 143 -4.49998 137.5 14.5L121.391 75.5L189.28 61L177 14.5Z" fill="black"/>
<path d="M82.1763 224L67.6522 279L239.322 250.5L225.062 196.5L82.1763 224Z" fill="black"/>
<path d="M212.254 148L199.446 99.5L110 118.637L96.0403 171.5L212.254 148Z" fill="black"/>
</svg>
